<svg xmlns="http://www.w3.org/2000/svg" viewBox="0 0 420 360">
  <defs>
    <radialGradient id="bg-color" cx="50%" cy="40%" r="80%">
      <stop offset="0%" stop-color="#fdf2f8"/>
      <stop offset="100%" stop-color="#eef2ff"/>
    </radialGradient>
    <linearGradient id="ring" x1="0%" y1="0%" x2="100%" y2="100%">
      <stop offset="0%" stop-color="#c7d2fe"/>
      <stop offset="100%" stop-color="#fbcfe8"/>
    </linearGradient>
  </defs>
  <rect width="420" height="360" rx="48" fill="url(#bg-color)"/>
  <circle cx="210" cy="180" r="120" fill="none" stroke="url(#ring)" stroke-width="16"/>
  <circle cx="210" cy="180" r="90" fill="#fff" stroke="#e9d5ff" stroke-width="4"/>
  <g>
    <path d="M210 90a90 90 0 0 1 78 45l-78 45z" fill="#fde68a"/>
    <path d="M288 135a90 90 0 0 1-18 108l-60-63z" fill="#fbbf24"/>
    <path d="M270 243a90 90 0 0 1-120-6l60-57z" fill="#a855f7"/>
    <path d="M150 237a90 90 0 0 1-18-108l78 45z" fill="#f472b6"/>
    <path d="M132 129a90 90 0 0 1 78-39v90z" fill="#38bdf8"/>
  </g>
  <circle cx="210" cy="180" r="28" fill="#0f172a"/>
  <path d="M210 48v36M210 276v36M72 180h36M312 180h36" stroke="#c7d2fe" stroke-width="6" stroke-linecap="round"/>
  <circle cx="96" cy="108" r="12" fill="#c7d2fe"/>
  <circle cx="324" cy="252" r="12" fill="#f9a8d4"/>
</svg>
